<?xml version="1.0" encoding="utf-8"?>
<!-- Generator: Adobe Illustrator 27.6.1, SVG Export Plug-In . SVG Version: 6.00 Build 0)  -->
<svg version="1.1" id="Layer_1" xmlns="http://www.w3.org/2000/svg" xmlns:xlink="http://www.w3.org/1999/xlink" x="0px" y="0px"
	 viewBox="0 0 283.5 283.5" style="enable-background:new 0 0 283.5 283.5;" xml:space="preserve">
<style type="text/css">
	.st0{fill-rule:evenodd;clip-rule:evenodd;fill:#FFC438;stroke:#FFFFFF;stroke-width:9.9992;stroke-miterlimit:10;}
	.st1{fill-rule:evenodd;clip-rule:evenodd;fill:#231F20;stroke:#231F20;stroke-width:1.3799;stroke-miterlimit:10;}
	.st2{fill-rule:evenodd;clip-rule:evenodd;fill:#231F20;stroke:#231F20;stroke-width:0.6899;stroke-miterlimit:10;}
</style>
<circle class="st0" cx="141.4" cy="137.5" r="76.3"/>
<g>
	<path class="st1" d="M132.8,183.5c0,0.7-0.7,1.3-1.7,1.3c-0.7,0-1.7-0.7-1.7-1.3c0-0.7,0.7-1.7,1.7-1.7
		C132.1,181.9,132.8,182.9,132.8,183.5L132.8,183.5z"/>
	<path class="st1" d="M137.8,183.2c0,1-0.7,1.7-1.7,1.7c-1,0-1.7-0.7-1.7-1.7c0-0.7,0.7-1.7,1.7-1.7
		C137.1,181.9,137.8,182.5,137.8,183.2L137.8,183.2z"/>
	<path class="st1" d="M142.8,183.2c0,1-0.7,1.7-1.7,1.7s-1.7-0.7-1.7-1.7c0-1,0.7-1.7,1.7-1.7S142.8,182.2,142.8,183.2L142.8,183.2z
		"/>
	<path class="st1" d="M147.8,182.9c0,0.7-0.7,1.7-1.7,1.7s-1.7-0.7-1.7-1.7c0-0.7,0.7-1.7,1.7-1.7S147.8,181.9,147.8,182.9
		L147.8,182.9z"/>
	<path class="st1" d="M152.4,182.5c0,1-0.7,1.7-1.7,1.7c-1,0-1.7-0.7-1.7-1.7c0-0.7,0.7-1.7,1.7-1.7
		C151.8,180.9,152.4,181.5,152.4,182.5L152.4,182.5z"/>
	<path class="st2" d="M156.1,173.5c0,2-1.7,3.3-3.3,3.3c-2,0-3.3-1.7-3.3-3.3s1.7-3.3,3.3-3.3C154.8,170.2,156.1,171.9,156.1,173.5
		L156.1,173.5z"/>
	<path class="st2" d="M158.4,165.2c0,2-1.7,3.3-3.3,3.3c-2,0-3.3-1.3-3.3-3.3s1.7-3.3,3.3-3.3S158.4,163.2,158.4,165.2L158.4,165.2z
		"/>
	<path class="st2" d="M162.1,157.2c0,2-1.7,3.3-3.3,3.3c-2,0-3.3-1.3-3.3-3.3s1.7-3.3,3.3-3.3C161.1,154.2,162.1,155.5,162.1,157.2
		L162.1,157.2z"/>
	<path class="st2" d="M168.1,149.5c0,2-1.7,3.3-3.3,3.3c-2,0-3.3-1.7-3.3-3.3s1.7-3.3,3.3-3.3C166.4,146.2,168.1,147.9,168.1,149.5
		L168.1,149.5z"/>
	<path class="st2" d="M172.1,141.5c0,2-1.7,3.3-3.3,3.3c-2,0-3.3-1.3-3.3-3.3s1.7-3.3,3.3-3.3C170.8,138.2,172.1,139.5,172.1,141.5
		L172.1,141.5z"/>
	<path class="st2" d="M174.8,132.2c0,2-1.7,3.3-3.3,3.3s-3.3-1.7-3.3-3.3c0-2,1.7-3.3,3.3-3.3S174.8,130.5,174.8,132.2L174.8,132.2z
		"/>
	<path class="st2" d="M173.8,123.2c0,2-1.7,3.3-3.3,3.3c-2,0-3.3-1.3-3.3-3.3c0-2,1.3-3.3,3.3-3.3S173.8,121.2,173.8,123.2
		L173.8,123.2z"/>
	<path class="st2" d="M171.4,114.9c0,2-1.7,3.3-3.3,3.3c-2,0-3.3-1.3-3.3-3.3c0-2,1.7-3.3,3.3-3.3
		C169.8,111.9,171.4,112.9,171.4,114.9L171.4,114.9z"/>
	<path class="st2" d="M166.8,108.2c0,2-1.7,3.3-3.3,3.3c-2,0-3.3-1.7-3.3-3.3c0-2,1.7-3.3,3.3-3.3S166.8,106.2,166.8,108.2
		L166.8,108.2z"/>
	<path class="st2" d="M160.4,102.5c0,2-1.7,3.3-3.3,3.3c-2,0-3.3-1.7-3.3-3.3c0-2,1.7-3.3,3.3-3.3S160.4,100.9,160.4,102.5
		L160.4,102.5z"/>
	<path class="st2" d="M152.4,99.2c0,2-1.7,3.3-3.3,3.3c-2,0-3.3-1.7-3.3-3.3c0-2,1.7-3.3,3.3-3.3S152.4,97.2,152.4,99.2L152.4,99.2z
		"/>
	<path class="st2" d="M144.4,98.2c0,2-1.7,3.3-3.3,3.3c-2,0-3.3-1.3-3.3-3.3c0-2,1.7-3.3,3.3-3.3S144.4,96.5,144.4,98.2L144.4,98.2z
		"/>
	<path class="st2" d="M136.4,99.5c0,2-1.7,3.3-3.3,3.3c-2,0-3.3-1.3-3.3-3.3c0-2,1.7-3.3,3.3-3.3S136.4,97.5,136.4,99.5L136.4,99.5z
		"/>
	<path class="st2" d="M128.4,102.9c0,2-1.7,3.3-3.3,3.3c-1.7,0-3.3-1.7-3.3-3.3c0-2,1.7-3.3,3.3-3.3
		C126.8,99.5,128.4,101.2,128.4,102.9L128.4,102.9z"/>
	<path class="st2" d="M122.1,108.5c0,2-1.7,3.3-3.3,3.3c-2,0-3.3-1.7-3.3-3.3c0-2,1.3-3.3,3.3-3.3
		C120.4,105.2,122.1,106.5,122.1,108.5L122.1,108.5z"/>
	<path class="st2" d="M117.4,115.2c0,2-1.7,3.3-3.3,3.3c-2,0-3.3-1.7-3.3-3.3c0-2,1.3-3.3,3.3-3.3
		C115.8,111.9,117.4,113.2,117.4,115.2L117.4,115.2z"/>
	<path class="st2" d="M114.8,123.2c0,2-1.3,3.3-3.3,3.3c-2,0-3.3-1.7-3.3-3.3c0-2,1.7-3.3,3.3-3.3
		C113.4,120.2,114.8,121.9,114.8,123.2L114.8,123.2z"/>
	<path class="st2" d="M114.4,132.9c0,2-1.7,3.3-3.3,3.3c-2,0-3.3-1.7-3.3-3.3c0-2,1.7-3.3,3.3-3.3S114.4,130.9,114.4,132.9
		L114.4,132.9z"/>
	<path class="st2" d="M117.1,141.2c0,2-1.7,3.3-3.3,3.3c-2,0-3.3-1.3-3.3-3.3s1.7-3.3,3.3-3.3S117.1,139.5,117.1,141.2L117.1,141.2z
		"/>
	<path class="st2" d="M121.1,149.5c0,2-1.7,3.3-3.3,3.3s-3.3-1.7-3.3-3.3c0-2,1.7-3.3,3.3-3.3S121.1,147.5,121.1,149.5L121.1,149.5z
		"/>
	<path class="st2" d="M127.1,157.2c0,2-1.7,3.3-3.3,3.3c-2,0-3.3-1.7-3.3-3.3c0-2,1.7-3.3,3.3-3.3S127.1,155.5,127.1,157.2
		L127.1,157.2z"/>
	<path class="st2" d="M130.8,164.9c0,2-1.7,3.3-3.3,3.3c-2,0-3.3-1.7-3.3-3.3c0-2,1.7-3.3,3.3-3.3
		C129.4,161.5,130.8,163.2,130.8,164.9L130.8,164.9z"/>
	<path class="st2" d="M133.1,173.5c0,2-1.7,3.3-3.3,3.3c-2,0-3.3-1.7-3.3-3.3s1.7-3.3,3.3-3.3S133.1,171.5,133.1,173.5L133.1,173.5z
		"/>
	<g>
		<path class="st1" d="M179.1,156.9c0,0.7-0.7,1.7-1.7,1.7c-1,0-1.7-0.7-1.7-1.7s0.7-1.7,1.7-1.7
			C178.4,155.5,179.1,156.2,179.1,156.9L179.1,156.9z"/>
		<path class="st1" d="M183.4,159.2c0,1-0.7,1.7-1.7,1.7c-0.7,0-1.7-0.7-1.7-1.7c0-0.7,0.7-1.7,1.7-1.7
			C182.8,157.5,183.4,158.2,183.4,159.2L183.4,159.2z"/>
		<path class="st1" d="M187.4,161.5c0,1-0.7,1.7-1.7,1.7c-0.7,0-1.7-0.7-1.7-1.7c0-1,0.7-1.7,1.7-1.7
			C186.8,160.2,187.4,160.9,187.4,161.5L187.4,161.5z"/>
		<path class="st1" d="M185.8,142.9c0.3,0.7,0,1.7-1,2c-0.7,0.3-1.7,0-2-1c-0.3-0.7,0-1.7,1-2C184.8,141.9,185.4,142.2,185.8,142.9
			L185.8,142.9z"/>
		<path class="st1" d="M190.8,143.9c0.3,0.7,0,1.7-1,2c-0.7,0.3-1.7,0-2-1c-0.3-0.7,0-1.7,1-2C189.8,142.5,190.4,142.9,190.8,143.9
			L190.8,143.9z"/>
		<path class="st1" d="M187.4,123.5c0.3,0.7,0,1.7-1,2c-0.7,0.3-1.7,0-2-1c-0.3-0.7,0-1.7,1-2C186.4,122.9,187.4,123.2,187.4,123.5
			L187.4,123.5z"/>
		<path class="st1" d="M192.4,123.2c0.3,0.7,0,1.7-1,2c-0.7,0.3-1.7,0-2-1c-0.3-0.7,0-1.7,1-2C191.4,121.9,192.1,122.2,192.4,123.2
			L192.4,123.2z"/>
		<path class="st1" d="M197.1,122.2c0.3,0.7,0,1.7-1,2c-0.7,0.3-1.7,0-2-1c-0.3-0.7,0-1.7,1-2C195.8,120.9,196.8,121.5,197.1,122.2
			L197.1,122.2z"/>
		<path class="st1" d="M182.8,106.5c0.3,0.7,0,1.7-1,2c-0.7,0.3-1.7,0-2-1c-0.3-0.7,0-1.7,1-2C181.8,105.2,182.4,105.5,182.8,106.5
			L182.8,106.5z"/>
		<path class="st1" d="M186.8,103.9c0.3,0.7,0,1.7-1,2c-0.7,0.3-1.7,0-2-1c-0.3-0.7,0-1.7,1-2C185.8,102.9,186.8,103.2,186.8,103.9
			L186.8,103.9z"/>
		<path class="st1" d="M191.1,101.5c0.3,0.7,0,1.7-1,2c-0.7,0.3-1.7,0-2-1c-0.3-0.7,0-1.7,1-2C190.1,100.5,190.8,100.5,191.1,101.5
			L191.1,101.5z"/>
		<path class="st1" d="M172.8,93.2c0.3,0.7,0,1.7-1,2c-0.7,0.3-1.7,0-2-1c-0.3-0.7,0-1.7,1-2C172.1,91.9,172.4,92.5,172.8,93.2
			L172.8,93.2z"/>
		<path class="st1" d="M176.1,89.5c0.3,0.7,0,1.7-1,2c-0.7,0.3-1.7,0-2-1c-0.3-0.7,0-1.7,1-2C175.1,88.5,175.8,89.2,176.1,89.5
			L176.1,89.5z"/>
		<path class="st1" d="M179.4,85.9c0.3,0.7,0,1.7-1,2c-0.7,0.3-1.7,0-2-1c-0.3-0.7,0-1.7,1-2C178.1,84.9,179.1,85.2,179.4,85.9
			L179.4,85.9z"/>
		<path class="st1" d="M158.8,84.2c0.3,0.7,0,1.7-1,2c-0.7,0.3-1.7,0-2-1c-0.3-0.7,0-1.7,1-2C157.8,83.2,158.4,83.5,158.8,84.2
			L158.8,84.2z"/>
		<path class="st1" d="M160.8,79.5c0.3,0.7,0,1.7-1,2c-0.7,0.3-1.7,0-2-1c-0.3-0.7,0-1.7,1-2C159.4,78.2,160.4,78.9,160.8,79.5
			L160.8,79.5z"/>
		<path class="st1" d="M162.1,75.2c0.3,0.7,0,1.7-1,2c-0.7,0.3-1.7,0-2-1c-0.3-0.7,0-1.7,1-2C161.1,74.2,161.8,74.5,162.1,75.2
			L162.1,75.2z"/>
		<path class="st1" d="M141.4,82.2c0.3,0.7,0,1.7-1,2c-0.7,0.3-1.7,0-2-1c-0.3-0.7,0-1.7,1-2C140.4,81.2,141.4,81.5,141.4,82.2
			L141.4,82.2z"/>
		<path class="st1" d="M141.4,77.5c0.3,0.7,0,1.7-1,2c-0.7,0.3-1.7,0-2-1c-0.3-0.7,0-1.7,1-2C140.4,76.5,141.4,76.9,141.4,77.5
			L141.4,77.5z"/>
		<path class="st1" d="M141.4,72.9c0.3,0.7,0,1.7-1,2c-0.7,0.3-1.7,0-2-1c-0.3-0.7,0-1.7,1-2C140.4,71.5,141.4,72.2,141.4,72.9
			L141.4,72.9z"/>
		<path class="st1" d="M123.4,76.5c0.3,0.7,0,1.7-1,2c-0.7,0.3-1.7,0-2-1c-0.3-0.7,0-1.7,1-2C122.4,75.2,123.4,75.5,123.4,76.5
			L123.4,76.5z"/>
		<path class="st1" d="M125.4,80.9c0.3,0.7,0,1.7-1,2c-0.7,0.3-1.7,0-2-1c-0.3-0.7,0-1.7,1-2C124.1,79.5,125.1,79.9,125.4,80.9
			L125.4,80.9z"/>
		<path class="st1" d="M127.1,85.5c0.3,0.7,0,1.7-1,2c-0.7,0.3-1.7,0-2-1c-0.3-0.7,0-1.7,1-2C125.8,84.2,126.8,84.5,127.1,85.5
			L127.1,85.5z"/>
		<path class="st1" d="M106.4,87.2c0.3,0.7,0,1.7-1,2c-0.7,0.3-1.7,0-2-1c-0.3-0.7,0-1.7,1-2C105.1,85.9,106.1,86.5,106.4,87.2
			L106.4,87.2z"/>
		<path class="st1" d="M109.4,90.5c0.3,0.7,0,1.7-1,2c-0.7,0.3-1.7,0-2-1c-0.3-0.7,0-1.7,1-2C108.4,89.5,109.1,89.9,109.4,90.5
			L109.4,90.5z"/>
		<path class="st1" d="M112.8,94.5c0.3,0.7,0,1.7-1,2c-0.7,0.3-1.7,0-2-1c-0.3-0.7,0-1.7,1-2C111.4,93.2,112.4,93.9,112.8,94.5
			L112.8,94.5z"/>
		<path class="st1" d="M103.1,107.5c0.3,0.7,0,1.7-1,2c-0.7,0.3-1.7,0-2-1c-0.3-0.7,0-1.7,1-2C101.8,106.5,102.8,106.9,103.1,107.5
			L103.1,107.5z"/>
		<path class="st1" d="M98.1,124.9c0.3,0.7,0,1.7-1,2c-0.7,0.3-1.7,0-2-1c-0.3-0.7,0-1.7,1-2C96.8,123.5,97.8,123.9,98.1,124.9
			L98.1,124.9z"/>
		<path class="st1" d="M99.8,144.2c0.3,0.7,0,1.7-1,2c-0.7,0.3-1.7,0-2-1c-0.3-0.7,0-1.7,1-2C98.8,142.9,99.4,143.2,99.8,144.2
			L99.8,144.2z"/>
		<path class="st1" d="M106.4,157.2c0.3,0.7,0,1.7-1,2c-0.7,0.3-1.7,0-2-1c-0.3-0.7,0-1.7,1-2C105.4,156.5,106.1,156.9,106.4,157.2
			L106.4,157.2z"/>
		<path class="st1" d="M102.4,159.9c0.3,0.7,0,1.7-1,2c-0.7,0.3-1.7,0-2-1c-0.3-0.7,0-1.7,1-2C101.4,158.5,102.1,159.2,102.4,159.9
			L102.4,159.9z"/>
		<path class="st1" d="M98.1,162.2c0.3,0.7,0,1.7-1,2c-0.7,0.3-1.7,0-2-1c-0.3-0.7,0-1.7,1-2C97.1,161.2,97.8,161.5,98.1,162.2
			L98.1,162.2z"/>
		<path class="st1" d="M94.8,144.9c0.3,0.7,0,1.7-1,2c-0.7,0.3-1.7,0-2-1c-0.3-0.7,0-1.7,1-2C93.8,143.9,94.4,144.2,94.8,144.9
			L94.8,144.9z"/>
		<path class="st1" d="M90.1,145.9c0.3,0.7,0,1.7-1,2c-0.7,0.3-1.7,0-2-1c-0.3-0.7,0-1.7,1-2C89.1,144.5,90.1,144.9,90.1,145.9
			L90.1,145.9z"/>
		<path class="st1" d="M93.4,123.9c0.3,0.7,0,1.7-1,2c-0.7,0.3-1.7,0-2-1c-0.3-0.7,0-1.7,1-2C92.4,122.5,93.1,123.2,93.4,123.9
			L93.4,123.9z"/>
		<path class="st1" d="M88.4,123.2c0.3,0.7,0,1.7-1,2c-0.7,0.3-1.7,0-2-1c-0.3-0.7,0-1.7,1-2C87.4,122.2,88.4,122.5,88.4,123.2
			L88.4,123.2z"/>
		<path class="st1" d="M98.8,105.2c0.3,0.7,0,1.7-1,2c-0.7,0.3-1.7,0-2-1c-0.3-0.7,0-1.7,1-2C97.4,103.9,98.4,104.5,98.8,105.2
			L98.8,105.2z"/>
		<path class="st1" d="M94.4,102.5c0.3,0.7,0,1.7-1,2c-0.7,0.3-1.7,0-2-1c-0.3-0.7,0-1.7,1-2C93.4,101.5,94.1,101.9,94.4,102.5
			L94.4,102.5z"/>
		<path class="st1" d="M195.4,144.5c0.3,0.7,0,1.7-1,2c-0.7,0.3-1.7,0-2-1c-0.3-1,0-1.7,1-2C194.4,143.5,195.1,143.9,195.4,144.5
			L195.4,144.5z"/>
	</g>
	<path class="st1" d="M132.1,189.5c0,0.7-0.7,1.7-1.7,1.7c-0.7,0-1.7-0.7-1.7-1.7c0-1,0.7-1.7,1.7-1.7
		C131.4,187.9,132.1,188.5,132.1,189.5L132.1,189.5z"/>
	<path class="st1" d="M137.1,189.2c0,1-0.7,1.7-1.7,1.7c-0.7,0-1.7-0.7-1.7-1.7c0-0.7,0.7-1.3,1.7-1.3
		C136.4,187.9,137.1,188.5,137.1,189.2L137.1,189.2z"/>
	<path class="st1" d="M141.8,188.9c0,0.7-0.7,1.7-1.7,1.7c-1,0-1.7-0.7-1.7-1.7s0.7-1.7,1.7-1.7
		C141.1,187.5,141.8,188.2,141.8,188.9L141.8,188.9z"/>
	<path class="st1" d="M146.8,188.5c0,1-0.7,1.7-1.7,1.7c-1,0-1.7-0.7-1.7-1.7c0-0.7,0.7-1.7,1.7-1.7
		C146.1,187.2,146.8,187.9,146.8,188.5L146.8,188.5z"/>
	<path class="st1" d="M151.4,188.5c0,0.7-0.7,1.7-1.7,1.7s-1.7-0.7-1.7-1.7s0.7-1.7,1.7-1.7S151.4,187.5,151.4,188.5L151.4,188.5z"
		/>
	<path class="st1" d="M133.4,195.2c0,0.7-0.7,1.7-1.7,1.7s-1.7-0.7-1.7-1.7s0.7-1.7,1.7-1.7S133.4,194.2,133.4,195.2L133.4,195.2z"
		/>
	<path class="st1" d="M138.4,194.9c0,0.7-0.7,1.7-1.3,1.7c-1,0-1.7-0.7-1.7-1.7s0.7-1.7,1.7-1.7
		C137.8,193.2,138.4,193.9,138.4,194.9L138.4,194.9z"/>
	<path class="st1" d="M143.1,194.5c0,1-0.7,1.7-1.7,1.7c-1,0-1.7-0.7-1.7-1.7c0-0.7,0.7-1.7,1.7-1.7
		C142.4,192.9,143.1,193.9,143.1,194.5L143.1,194.5z"/>
	<path class="st1" d="M148.4,194.2c0,1-0.7,1.7-1.7,1.7c-0.7,0-1.7-0.7-1.7-1.7c0-0.7,0.7-1.7,1.7-1.7
		C147.4,192.9,148.4,193.5,148.4,194.2L148.4,194.2z"/>
	<path class="st1" d="M153.1,193.9c0,1-0.7,1.7-1.7,1.7c-0.7,0-1.7-0.7-1.7-1.7s0.7-1.7,1.7-1.7
		C152.4,192.5,153.1,193.2,153.1,193.9L153.1,193.9z"/>
	<path class="st1" d="M132.8,201.2c0,0.7-0.7,1.7-1.7,1.7c-0.7,0-1.7-0.7-1.7-1.7c0-0.7,0.7-1.7,1.7-1.7
		C132.1,199.5,132.8,200.2,132.8,201.2L132.8,201.2z"/>
	<path class="st1" d="M137.8,200.9c0,0.7-0.7,1.7-1.7,1.7c-0.7,0-1.7-0.7-1.7-1.7c0-1,0.7-1.7,1.7-1.7
		C137.1,199.2,137.8,199.9,137.8,200.9L137.8,200.9z"/>
	<path class="st1" d="M142.4,200.5c0,0.7-0.7,1.7-1.7,1.7c-1,0-1.7-0.7-1.7-1.7c0-1,0.7-1.7,1.7-1.7
		C141.8,199.2,142.4,199.9,142.4,200.5L142.4,200.5z"/>
	<path class="st1" d="M147.4,200.2c0,1-0.7,1.7-1.7,1.7c-0.7,0-1.7-0.7-1.7-1.7c0-0.7,0.7-1.7,1.7-1.7
		C146.8,198.9,147.4,199.5,147.4,200.2L147.4,200.2z"/>
	<path class="st1" d="M152.4,199.9c0,1-0.7,1.7-1.7,1.7c-0.7,0-1.7-0.7-1.7-1.7c0-0.7,0.7-1.7,1.7-1.7
		C151.8,198.5,152.4,199.2,152.4,199.9L152.4,199.9z"/>
</g>
</svg>
