<?xml version="1.0" encoding="UTF-8"?>
<svg id="Layer_1" xmlns="http://www.w3.org/2000/svg" version="1.1" viewBox="0 0 235 50">
  <!-- Generator: Adobe Illustrator 29.0.0, SVG Export Plug-In . SVG Version: 2.1.0 Build 186)  -->
  <defs>
    <style>
      .st0 {
        stroke-width: .4px;
      }

      .st0, .st1 {
        fill: #231f20;
        fill-rule: evenodd;
        stroke: #231f20;
      }

      .st0, .st1, .st2 {
        stroke-miterlimit: 10;
      }

      .st1 {
        stroke-width: .2px;
      }

      .st3 {
        fill: #fff;
      }

      .st2 {
        fill: #ffc337;
        stroke: #fff;
        stroke-width: 3px;
      }
    </style>
  </defs>
  <circle class="st2" cx="25.5" cy="25.3" r="22.9"/>
  <g>
    <path class="st0" d="M22.9,39.1c0,.2-.2.4-.5.4s-.5-.2-.5-.4.2-.5.5-.5.5.3.5.5h0Z"/>
    <path class="st0" d="M24.4,39c0,.3-.2.5-.5.5s-.5-.2-.5-.5.2-.5.5-.5c.3,0,.5.3.5.5h0Z"/>
    <path class="st0" d="M25.9,39c0,.3-.2.5-.5.5s-.5-.2-.5-.5.2-.5.5-.5.5.2.5.5h0Z"/>
    <path class="st0" d="M27.4,38.9c0,.2-.2.5-.5.5s-.5-.2-.5-.5.2-.5.5-.5.5.2.5.5h0Z"/>
    <path class="st0" d="M28.8,38.8c0,.3-.2.5-.5.5s-.5-.2-.5-.5.2-.5.5-.5.5.2.5.5h0Z"/>
    <path class="st1" d="M29.9,36.1c0,.6-.5,1-1,1s-1-.5-1-1,.5-1,1-1,1,.5,1,1h0Z"/>
    <path class="st1" d="M30.6,33.6c0,.6-.5,1-1,1s-1-.4-1-1,.5-1,1-1,1,.4,1,1h0Z"/>
    <path class="st1" d="M31.7,31.2c0,.6-.5,1-1,1s-1-.4-1-1,.5-1,1-1c.7,0,1,.5,1,1h0Z"/>
    <path class="st1" d="M33.5,28.9c0,.6-.5,1-1,1s-1-.5-1-1,.5-1,1-1,1,.5,1,1h0Z"/>
    <path class="st1" d="M34.7,26.5c0,.6-.5,1-1,1s-1-.4-1-1,.5-1,1-1,1,.4,1,1h0Z"/>
    <path class="st1" d="M35.5,23.7c0,.6-.5,1-1,1s-1-.5-1-1,.5-1,1-1,1,.5,1,1h0Z"/>
    <path class="st1" d="M35.2,21c0,.6-.5,1-1,1s-1-.4-1-1,.4-1,1-1,1,.4,1,1h0Z"/>
    <path class="st1" d="M34.5,18.5c0,.6-.5,1-1,1s-1-.4-1-1,.5-1,1-1c.5.1,1,.4,1,1h0Z"/>
    <path class="st1" d="M33.1,16.5c0,.6-.5,1-1,1s-1-.5-1-1,.5-1,1-1,1,.4,1,1h0Z"/>
    <path class="st1" d="M31.2,14.8c0,.6-.5,1-1,1s-1-.5-1-1,.5-1,1-1,1,.5,1,1h0Z"/>
    <path class="st1" d="M28.8,13.8c0,.6-.5,1-1,1s-1-.5-1-1,.5-1,1-1,1,.4,1,1h0Z"/>
    <path class="st1" d="M26.4,13.5c0,.6-.5,1-1,1s-1-.4-1-1,.5-1,1-1,1,.5,1,1h0Z"/>
    <path class="st1" d="M24,13.9c0,.6-.5,1-1,1s-1-.4-1-1,.5-1,1-1,1,.4,1,1h0Z"/>
    <path class="st1" d="M21.6,14.9c0,.6-.5,1-1,1s-1-.5-1-1,.5-1,1-1,1,.5,1,1h0Z"/>
    <path class="st1" d="M19.7,16.6c0,.6-.5,1-1,1s-1-.5-1-1,.4-1,1-1,1,.4,1,1h0Z"/>
    <path class="st1" d="M18.3,18.6c0,.6-.5,1-1,1s-1-.5-1-1,.4-1,1-1,1,.4,1,1h0Z"/>
    <path class="st1" d="M17.5,21c0,.6-.4,1-1,1s-1-.5-1-1,.5-1,1-1c.6.1,1,.6,1,1h0Z"/>
    <path class="st1" d="M17.4,23.9c0,.6-.5,1-1,1s-1-.5-1-1,.5-1,1-1,1,.4,1,1h0Z"/>
    <path class="st1" d="M18.2,26.4c0,.6-.5,1-1,1s-1-.4-1-1,.5-1,1-1,1,.5,1,1h0Z"/>
    <path class="st1" d="M19.4,28.9c0,.6-.5,1-1,1s-1-.5-1-1,.5-1,1-1,1,.4,1,1h0Z"/>
    <path class="st1" d="M21.2,31.2c0,.6-.5,1-1,1s-1-.5-1-1,.5-1,1-1,1,.5,1,1h0Z"/>
    <path class="st1" d="M22.3,33.5c0,.6-.5,1-1,1s-1-.5-1-1,.5-1,1-1,1,.5,1,1h0Z"/>
    <path class="st1" d="M23,36.1c0,.6-.5,1-1,1s-1-.5-1-1,.5-1,1-1,1,.4,1,1h0Z"/>
    <g>
      <path class="st0" d="M36.8,31.1c0,.2-.2.5-.5.5s-.5-.2-.5-.5.2-.5.5-.5c.3.1.5.3.5.5h0Z"/>
      <path class="st0" d="M38.1,31.8c0,.3-.2.5-.5.5s-.5-.2-.5-.5.2-.5.5-.5.5.2.5.5h0Z"/>
      <path class="st0" d="M39.3,32.5c0,.3-.2.5-.5.5s-.5-.2-.5-.5.2-.5.5-.5c.3,0,.5.3.5.5h0Z"/>
      <path class="st0" d="M38.8,26.9c0,.2,0,.5-.3.6-.2.1-.5,0-.6-.3,0-.2,0-.5.3-.6.3,0,.5.1.6.3h0Z"/>
      <path class="st0" d="M40.3,27.2c0,.2,0,.5-.3.6-.2.1-.5,0-.6-.3,0-.2,0-.5.3-.6.3-.1.5,0,.6.3h0Z"/>
      <path class="st0" d="M39.3,21.1c0,.2,0,.5-.3.6-.2.1-.5,0-.6-.3,0-.2,0-.5.3-.6.3,0,.6.2.6.3h0Z"/>
      <path class="st0" d="M40.8,21c0,.2,0,.5-.3.6-.2.1-.5,0-.6-.3,0-.2,0-.5.3-.6s.5,0,.6.3h0Z"/>
      <path class="st0" d="M42.2,20.7c0,.2,0,.5-.3.6-.2.1-.5,0-.6-.3,0-.2,0-.5.3-.6.2-.1.5,0,.6.3h0Z"/>
      <path class="st0" d="M37.9,16c0,.2,0,.5-.3.6-.2.1-.5,0-.6-.3,0-.2,0-.5.3-.6.3-.1.5,0,.6.3h0Z"/>
      <path class="st0" d="M39.1,15.2c0,.2,0,.5-.3.6-.2.1-.5,0-.6-.3,0-.2,0-.5.3-.6.3,0,.6.1.6.3h0Z"/>
      <path class="st0" d="M40.4,14.5c0,.2,0,.5-.3.6-.2.1-.5,0-.6-.3,0-.2,0-.5.3-.6.3,0,.5,0,.6.3h0Z"/>
      <path class="st0" d="M34.9,12c0,.2,0,.5-.3.6-.2.1-.5,0-.6-.3,0-.2,0-.5.3-.6.4,0,.5.1.6.3h0Z"/>
      <path class="st0" d="M35.9,10.9c0,.2,0,.5-.3.6-.2.1-.5,0-.6-.3,0-.2,0-.5.3-.6.3,0,.5.2.6.3h0Z"/>
      <path class="st0" d="M36.9,9.8c0,.2,0,.5-.3.6-.2.1-.5,0-.6-.3,0-.2,0-.5.3-.6.2,0,.5.1.6.3h0Z"/>
      <path class="st0" d="M30.7,9.3c.1.2,0,.5-.3.6-.2.1-.5,0-.6-.3-.1-.2,0-.5.3-.6.3,0,.5.1.6.3h0Z"/>
      <path class="st0" d="M31.3,7.9c.1.2,0,.5-.3.6-.2.1-.5,0-.6-.3-.1-.2,0-.5.3-.6.2,0,.5,0,.6.3h0Z"/>
      <path class="st0" d="M31.7,6.6c.1.2,0,.5-.3.6-.2,0-.5,0-.6-.3-.1-.2,0-.5.3-.6.3,0,.5.1.6.3h0Z"/>
      <path class="st0" d="M25.5,8.7c.1.2,0,.5-.3.6-.2.1-.5,0-.6-.3-.1-.2,0-.5.3-.6.3,0,.6.1.6.3h0Z"/>
      <path class="st0" d="M25.5,7.3c.1.2,0,.5-.3.6-.2,0-.5,0-.6-.3-.1-.2,0-.5.3-.6.3,0,.6,0,.6.3h0Z"/>
      <path class="st0" d="M25.5,5.9c.1.2,0,.5-.3.6-.2,0-.5,0-.6-.3-.1-.2,0-.5.3-.6s.6,0,.6.3h0Z"/>
      <path class="st0" d="M20.1,7c.1.2,0,.5-.3.6-.2,0-.5,0-.6-.3-.1-.2,0-.5.3-.6s.6,0,.6.3h0Z"/>
      <path class="st0" d="M20.7,8.3c.1.2,0,.5-.3.6-.2.1-.5,0-.6-.3-.1-.2,0-.5.3-.6.2,0,.5,0,.6.3h0Z"/>
      <path class="st0" d="M21.2,9.7c.1.2,0,.5-.3.6-.2.1-.5,0-.6-.3-.1-.2,0-.5.3-.6.2,0,.5,0,.6.3h0Z"/>
      <path class="st0" d="M15,10.2c.1.2,0,.5-.3.6-.2.1-.5,0-.6-.3-.1-.2,0-.5.3-.6.2,0,.5.1.6.3h0Z"/>
      <path class="st0" d="M15.9,11.2c.1.2,0,.5-.3.6-.2.1-.5,0-.6-.3-.1-.2,0-.5.3-.6.3,0,.5.1.6.3h0Z"/>
      <path class="st0" d="M16.9,12.4c.1.2,0,.5-.3.6-.2.1-.5,0-.6-.3-.1-.2,0-.5.3-.6.2,0,.5.1.6.3h0Z"/>
      <path class="st0" d="M14,16.3c.1.2,0,.5-.3.6-.2.1-.5,0-.6-.3-.1-.2,0-.5.3-.6.2,0,.5.1.6.3h0Z"/>
      <path class="st0" d="M12.5,21.5c.1.2,0,.5-.3.6-.2.1-.5,0-.6-.3-.1-.2,0-.5.3-.6.2-.1.5,0,.6.3h0Z"/>
      <path class="st0" d="M13,27.3c.1.2,0,.5-.3.6-.2.1-.5,0-.6-.3-.1-.2,0-.5.3-.6s.5,0,.6.3h0Z"/>
      <path class="st0" d="M15,31.2c.1.2,0,.5-.3.6-.2.1-.5,0-.6-.3-.1-.2,0-.5.3-.6.3,0,.5.2.6.3h0Z"/>
      <path class="st0" d="M13.8,32c.1.2,0,.5-.3.6-.2,0-.5,0-.6-.3-.1-.2,0-.5.3-.6.3,0,.5.1.6.3h0Z"/>
      <path class="st0" d="M12.5,32.7c.1.2,0,.5-.3.6-.2,0-.5,0-.6-.3-.1-.2,0-.5.3-.6.3,0,.5,0,.6.3h0Z"/>
      <path class="st0" d="M11.5,27.5c.1.2,0,.5-.3.6-.2.1-.5,0-.6-.3-.1-.2,0-.5.3-.6.3,0,.5,0,.6.3h0Z"/>
      <path class="st0" d="M10.1,27.8c.1.2,0,.5-.3.6-.2.1-.5,0-.6-.3-.1-.2,0-.5.3-.6s.6,0,.6.3h0Z"/>
      <path class="st0" d="M11.1,21.2c.1.2,0,.5-.3.6-.2.1-.5,0-.6-.3-.1-.2,0-.5.3-.6s.5,0,.6.3h0Z"/>
      <path class="st0" d="M9.6,21c.1.2,0,.5-.3.6-.2.1-.5,0-.6-.3-.1-.2,0-.5.3-.6.3,0,.6,0,.6.3h0Z"/>
      <path class="st0" d="M12.7,15.6c.1.2,0,.5-.3.6-.2.1-.5,0-.6-.3-.1-.2,0-.5.3-.6.2-.1.5,0,.6.3h0Z"/>
      <path class="st0" d="M11.4,14.8c.1.2,0,.5-.3.6-.2.1-.5,0-.6-.3-.1-.2,0-.5.3-.6.3,0,.5.1.6.3h0Z"/>
      <path class="st0" d="M41.7,27.4c0,.2,0,.5-.3.6-.2.1-.5,0-.6-.3s0-.5.3-.6c.3,0,.5.1.6.3h0Z"/>
    </g>
    <path class="st0" d="M22.7,40.9c0,.2-.2.5-.5.5s-.5-.2-.5-.5.2-.5.5-.5.5.2.5.5h0Z"/>
    <path class="st0" d="M24.2,40.8c0,.3-.2.5-.5.5s-.5-.2-.5-.5.2-.4.5-.4c.3,0,.5.2.5.4h0Z"/>
    <path class="st0" d="M25.6,40.7c0,.2-.2.5-.5.5s-.5-.2-.5-.5.2-.5.5-.5c.3,0,.5.3.5.5h0Z"/>
    <path class="st0" d="M27.1,40.6c0,.3-.2.5-.5.5s-.5-.2-.5-.5.2-.5.5-.5c.3.1.5.3.5.5h0Z"/>
    <path class="st0" d="M28.5,40.6c0,.2-.2.5-.5.5s-.5-.2-.5-.5.2-.5.5-.5.5.2.5.5h0Z"/>
    <path class="st0" d="M23.1,42.6c0,.2-.2.5-.5.5s-.5-.2-.5-.5.2-.5.5-.5.5.2.5.5h0Z"/>
    <path class="st0" d="M24.6,42.5c0,.2-.2.5-.4.5-.3,0-.5-.2-.5-.5s.2-.5.5-.5.4.2.4.5h0Z"/>
    <path class="st0" d="M26,42.4c0,.3-.2.5-.5.5s-.5-.2-.5-.5.2-.5.5-.5.5.3.5.5h0Z"/>
    <path class="st0" d="M27.6,42.3c0,.3-.2.5-.5.5s-.5-.2-.5-.5.2-.5.5-.5c.2.1.5.3.5.5h0Z"/>
    <path class="st0" d="M29,42.2c0,.3-.2.5-.5.5s-.5-.2-.5-.5.2-.5.5-.5c.3,0,.5.3.5.5h0Z"/>
    <path class="st0" d="M22.9,44.4c0,.2-.2.5-.5.5s-.5-.2-.5-.5.2-.5.5-.5.5.2.5.5h0Z"/>
    <path class="st0" d="M24.4,44.3c0,.2-.2.5-.5.5s-.5-.2-.5-.5.2-.5.5-.5.5.2.5.5h0Z"/>
    <path class="st0" d="M25.8,44.2c0,.2-.2.5-.5.5s-.5-.2-.5-.5.2-.5.5-.5c.3,0,.5.3.5.5h0Z"/>
    <path class="st0" d="M27.3,44.1c0,.3-.2.5-.5.5s-.5-.2-.5-.5.2-.5.5-.5c.3.1.5.3.5.5h0Z"/>
    <path class="st0" d="M28.8,44c0,.3-.2.5-.5.5s-.5-.2-.5-.5.2-.5.5-.5c.3,0,.5.3.5.5h0Z"/>
  </g>
  <g>
    <path class="st3" d="M84.9,24.3c0,2.2-.4,4.3-1.2,6.2-.8,1.9-1.9,3.5-3.4,4.9-1.4,1.3-2.9,2.2-4.6,2.9s-3.6.9-5.5.9-3.7-.3-5.4-.9-3.2-1.5-4.5-2.7c-1.5-1.3-2.7-3-3.5-4.9-.9-1.9-1.3-4.1-1.3-6.4s.4-4.1,1.1-5.9,1.8-3.4,3.2-4.8c1.3-1.3,2.9-2.3,4.6-3,1.8-.7,3.7-1,5.8-1s4,.3,5.7,1c1.8.6,3.3,1.6,4.6,2.9,1.5,1.4,2.6,3.1,3.4,4.9.7,1.9,1.1,3.9,1.1,6ZM77.8,24.5c0-1.4-.2-2.8-.7-4.2-.5-1.4-1.2-2.5-2.2-3.4-.6-.6-1.3-1-2.1-1.4-.8-.3-1.7-.5-2.7-.5s-1.8.2-2.7.5c-.8.3-1.6.8-2.2,1.5-.9.9-1.5,1.9-2,3.3-.5,1.3-.7,2.6-.7,4s.2,2.9.7,4.2c.5,1.3,1.2,2.3,2.1,3.2.6.6,1.3,1.1,2.2,1.4.8.3,1.7.5,2.7.5s1.8-.2,2.6-.5c.8-.3,1.6-.8,2.2-1.4.9-.8,1.5-1.8,2-3.1.5-1.3.8-2.6.8-4Z"/>
    <path class="st3" d="M114.4,30c0,1.6-.5,3-1.4,4.2-1,1.2-2.3,2.1-4.1,2.8-1.5.5-3.1.9-5,1.1-1.9.2-4,.3-6.3.3s-2.5,0-3.9,0c-1.3,0-2.3,0-3,0,0-2.3,0-4.6,0-7,0-2.4,0-4.9,0-7.7s0-5.9,0-8.8c0-2.9,0-4.4,0-4.5.2,0,1,0,2.3,0,1.3,0,2.7,0,4.2,0,2.3,0,4.2,0,5.7.2,1.5.1,2.9.4,4.1.8,1.5.5,2.8,1.2,3.7,2.2.9,1,1.4,2.2,1.4,3.7s-.4,2.5-1.2,3.6c-.8,1.1-1.8,1.9-3.1,2.4h0c.8.3,1.6.5,2.3.7s1.3.7,1.9,1.2c.8.6,1.4,1.4,1.8,2.2.4.8.6,1.8.6,2.9ZM107.3,29.3c0-.6-.1-1.2-.4-1.7-.3-.5-.6-.9-1-1.3-.4-.3-.9-.6-1.5-.8-.6-.2-1.3-.3-2-.3s-1,0-1.4,0c-.4,0-.6,0-.7,0l-.6-2.7c.7,0,1.4-.1,2.1-.3.6-.2,1.2-.4,1.6-.7.5-.3.8-.8,1.1-1.3.3-.5.4-1.1.4-1.9s-.2-1.2-.5-1.7c-.3-.5-.8-1-1.4-1.3-.5-.2-1.1-.4-1.7-.5-.7-.1-1.4-.2-2.1-.2s-.8,0-1.2,0c-.4,0-.7,0-.8,0,0,1.4,0,3,0,4.7,0,1.7,0,3.2,0,4.6s0,3.3,0,5.7c0,2.4,0,3.7,0,3.9.2,0,.5,0,.9,0,.4,0,.8,0,1.4,0,1.1,0,2.1,0,3.2-.2,1-.1,1.9-.4,2.5-.7.6-.3,1.1-.8,1.5-1.4.4-.6.5-1.3.5-2Z"/>
    <path class="st3" d="M126.9,38.3h-6.9c0-1.2,0-2.9,0-5.1s0-5.3,0-9.1,0-3.7,0-6.1c0-2.5,0-5,0-7.6h6.9c0,1.9,0,4.1,0,6.6,0,2.5,0,4.7,0,6.6,0,4,0,7,0,9.2,0,2.2,0,4,0,5.6Z"/>
    <path class="st3" d="M153.6,38.3c-.3,0-1.8,0-4.4,0-2.6,0-4.6,0-6,0s-3.6,0-5.8,0c-2.2,0-3.5,0-4,0l-1.7-3.9c1.1-.5,2.2-1,3.3-1.5s2.2-1.2,3.3-1.8c1.6-1,2.8-1.9,3.6-2.8s1.2-1.9,1.2-2.9-.2-1.4-.6-1.9c-.4-.5-1-.9-1.7-1.2-.6-.2-1.3-.4-2.2-.5-.8-.1-1.7-.2-2.6-.2s-1.2,0-1.7,0c-.6,0-1,0-1.4,0l.7-4.9c.4,0,1,0,1.6,0s1.2,0,1.8,0c1.6,0,3.1,0,4.4.3s2.6.5,3.7,1c1.7.6,2.9,1.5,3.7,2.5.8,1,1.2,2.3,1.2,3.8s-.3,2-.8,2.9c-.5,1-1.2,1.8-2,2.6-.7.7-1.6,1.4-2.8,2.1-1.1.7-2.1,1.3-3.1,1.7v.2c1,0,1.8,0,2.7-.1.9,0,1.6,0,2.3,0,1.5,0,3,0,4.5,0,1.5,0,2.4,0,2.8,0v4.8Z"/>
    <path class="st3" d="M179.5,27.7c0,1.6-.3,3.2-.9,4.6s-1.5,2.7-2.7,3.7c-1,.9-2.3,1.7-3.7,2.2-1.4.5-3,.8-4.7.8s-3.2-.2-4.6-.7c-1.4-.5-2.7-1.2-3.8-2.1-1.2-1.1-2.1-2.3-2.7-3.7-.6-1.4-.9-3-.9-4.7s.3-3.2.8-4.5c.6-1.3,1.4-2.5,2.5-3.6,1.1-1,2.3-1.8,3.8-2.4,1.5-.6,3.1-.8,4.8-.8s3.3.3,4.8.8c1.5.5,2.7,1.3,3.8,2.3,1.1,1.1,2,2.3,2.6,3.7.6,1.4.9,2.9.9,4.6ZM173.1,27.8c0-1-.2-2-.5-2.9s-.8-1.7-1.4-2.3c-.5-.5-1-.8-1.6-1.1-.6-.3-1.3-.4-2.1-.4s-1.6.1-2.2.4c-.6.3-1.1.6-1.6,1.1-.6.5-1,1.3-1.3,2.2-.3.9-.5,1.8-.5,2.8s.2,2,.5,2.9c.3.9.8,1.6,1.5,2.3.5.4,1,.8,1.6,1,.6.3,1.3.4,2.1.4s1.5-.1,2.1-.4c.6-.3,1.2-.6,1.6-1,.6-.6,1.1-1.3,1.5-2.2s.5-1.8.5-2.8Z"/>
    <path class="st3" d="M204.1,38.3c-.3,0-1.8,0-4.4,0-2.6,0-4.6,0-6,0s-3.6,0-5.8,0c-2.2,0-3.5,0-4,0l-1.7-3.9c1.1-.5,2.2-1,3.3-1.5s2.2-1.2,3.3-1.8c1.6-1,2.8-1.9,3.6-2.8s1.2-1.9,1.2-2.9-.2-1.4-.6-1.9c-.4-.5-1-.9-1.7-1.2-.6-.2-1.3-.4-2.2-.5-.8-.1-1.7-.2-2.6-.2s-1.2,0-1.7,0c-.6,0-1,0-1.4,0l.7-4.9c.4,0,1,0,1.6,0s1.2,0,1.8,0c1.6,0,3.1,0,4.4.3s2.6.5,3.7,1c1.7.6,2.9,1.5,3.7,2.5.8,1,1.2,2.3,1.2,3.8s-.3,2-.8,2.9c-.5,1-1.2,1.8-2,2.6-.7.7-1.6,1.4-2.8,2.1-1.1.7-2.1,1.3-3.1,1.7v.2c1,0,1.8,0,2.7-.1.9,0,1.6,0,2.3,0,1.5,0,3,0,4.5,0,1.5,0,2.4,0,2.8,0v4.8Z"/>
    <path class="st3" d="M225,22c-.3,0-1.6,0-4.1,0-2.4,0-5,0-7.6,0v5.4c1.2,0,2.3.3,3.4.5,1.1.2,2.1.6,3,1,1.7.7,2.9,1.7,3.7,2.8s1.2,2.5,1.2,4-.5,2.9-1.4,4.2c-.9,1.3-2.3,2.4-4,3.1-1.2.6-2.6,1-4.2,1.3s-3.3.4-5.1.4-1,0-1.5,0c-.6,0-1,0-1.2,0l-.8-5h1.4c1.4,0,2.8,0,4.2-.2,1.4-.1,2.6-.3,3.5-.7.9-.3,1.6-.8,2.1-1.3.4-.5.7-1.2.7-2s-.3-1.4-.8-1.9c-.6-.6-1.4-1-2.4-1.4-.6-.2-1.4-.3-2.4-.5s-2.1-.2-3.2-.3c-.3,0-.6,0-.9,0-.3,0-.5,0-.6,0,0-.2,0-1.2,0-2.8,0-1.7,0-3.1,0-4.2s0-2.4,0-4.2c0-1.8,0-2.8,0-3.1.3,0,1.3,0,3.2,0s3.7,0,5.4,0,3.2,0,5.3,0,3.2,0,3.5,0v4.8Z"/>
  </g>
</svg>